<svg xmlns="http://www.w3.org/2000/svg" viewBox="0 0 1200 800" width="1200" height="800" role="img" aria-label="All India Institute of Medical Sciences">
  <defs>
    <linearGradient id="g2crkkd" gradientTransform="rotate(49 0.5 0.5)">
      <stop offset="0%" stop-color="#123B4A"/>
      <stop offset="100%" stop-color="#C9A24B"/>
    </linearGradient>
    <radialGradient id="vg2crkkd" cx="50%" cy="38%" r="72%">
      <stop offset="0%" stop-color="#FFFFFF" stop-opacity="0.20"/>
      <stop offset="100%" stop-color="#000000" stop-opacity="0.28"/>
    </radialGradient>
    <pattern id="pg2crkkd" width="26" height="26" patternUnits="userSpaceOnUse" patternTransform="rotate(45)">
      <line x1="0" y1="0" x2="0" y2="26" stroke="#FFFFFF" stroke-width="1" opacity="0.07"/>
    </pattern>
  </defs>

  <rect width="1200" height="800" fill="url(#g2crkkd)"/>
  <rect width="1200" height="800" fill="url(#pg2crkkd)"/>
  <g><rect x="0" y="607" width="119" height="193" rx="4" fill="#FFFFFF" opacity="0.16"/><rect x="14" y="633" width="12" height="20" fill="#FFFFFF" opacity="0.272"/><rect x="48" y="633" width="12" height="20" fill="#FFFFFF" opacity="0.272"/><rect x="82" y="633" width="12" height="20" fill="#FFFFFF" opacity="0.272"/><rect x="14" y="679" width="12" height="20" fill="#FFFFFF" opacity="0.272"/><rect x="48" y="679" width="12" height="20" fill="#FFFFFF" opacity="0.272"/><rect x="82" y="679" width="12" height="20" fill="#FFFFFF" opacity="0.272"/><rect x="14" y="725" width="12" height="20" fill="#FFFFFF" opacity="0.272"/><rect x="48" y="725" width="12" height="20" fill="#FFFFFF" opacity="0.272"/><rect x="82" y="725" width="12" height="20" fill="#FFFFFF" opacity="0.272"/><rect x="133" y="489" width="94" height="311" rx="4" fill="#FFFFFF" opacity="0.16"/><rect x="147" y="515" width="12" height="20" fill="#FFFFFF" opacity="0.272"/><rect x="181" y="515" width="12" height="20" fill="#FFFFFF" opacity="0.272"/><rect x="147" y="561" width="12" height="20" fill="#FFFFFF" opacity="0.272"/><rect x="181" y="561" width="12" height="20" fill="#FFFFFF" opacity="0.272"/><rect x="147" y="607" width="12" height="20" fill="#FFFFFF" opacity="0.272"/><rect x="181" y="607" width="12" height="20" fill="#FFFFFF" opacity="0.272"/><rect x="147" y="653" width="12" height="20" fill="#FFFFFF" opacity="0.272"/><rect x="181" y="653" width="12" height="20" fill="#FFFFFF" opacity="0.272"/><rect x="147" y="699" width="12" height="20" fill="#FFFFFF" opacity="0.272"/><rect x="181" y="699" width="12" height="20" fill="#FFFFFF" opacity="0.272"/><rect x="147" y="745" width="12" height="20" fill="#FFFFFF" opacity="0.272"/><rect x="181" y="745" width="12" height="20" fill="#FFFFFF" opacity="0.272"/><rect x="241" y="560" width="127" height="240" rx="4" fill="#FFFFFF" opacity="0.16"/><rect x="255" y="586" width="12" height="20" fill="#FFFFFF" opacity="0.272"/><rect x="289" y="586" width="12" height="20" fill="#FFFFFF" opacity="0.272"/><rect x="323" y="586" width="12" height="20" fill="#FFFFFF" opacity="0.272"/><rect x="255" y="632" width="12" height="20" fill="#FFFFFF" opacity="0.272"/><rect x="289" y="632" width="12" height="20" fill="#FFFFFF" opacity="0.272"/><rect x="323" y="632" width="12" height="20" fill="#FFFFFF" opacity="0.272"/><rect x="255" y="678" width="12" height="20" fill="#FFFFFF" opacity="0.272"/><rect x="289" y="678" width="12" height="20" fill="#FFFFFF" opacity="0.272"/><rect x="323" y="678" width="12" height="20" fill="#FFFFFF" opacity="0.272"/><rect x="255" y="724" width="12" height="20" fill="#FFFFFF" opacity="0.272"/><rect x="289" y="724" width="12" height="20" fill="#FFFFFF" opacity="0.272"/><rect x="323" y="724" width="12" height="20" fill="#FFFFFF" opacity="0.272"/><rect x="382" y="595" width="143" height="205" rx="4" fill="#FFFFFF" opacity="0.16"/><rect x="396" y="621" width="12" height="20" fill="#FFFFFF" opacity="0.272"/><rect x="430" y="621" width="12" height="20" fill="#FFFFFF" opacity="0.272"/><rect x="464" y="621" width="12" height="20" fill="#FFFFFF" opacity="0.272"/><rect x="498" y="621" width="12" height="20" fill="#FFFFFF" opacity="0.272"/><rect x="396" y="667" width="12" height="20" fill="#FFFFFF" opacity="0.272"/><rect x="430" y="667" width="12" height="20" fill="#FFFFFF" opacity="0.272"/><rect x="464" y="667" width="12" height="20" fill="#FFFFFF" opacity="0.272"/><rect x="498" y="667" width="12" height="20" fill="#FFFFFF" opacity="0.272"/><rect x="396" y="713" width="12" height="20" fill="#FFFFFF" opacity="0.272"/><rect x="430" y="713" width="12" height="20" fill="#FFFFFF" opacity="0.272"/><rect x="464" y="713" width="12" height="20" fill="#FFFFFF" opacity="0.272"/><rect x="498" y="713" width="12" height="20" fill="#FFFFFF" opacity="0.272"/><rect x="396" y="759" width="12" height="20" fill="#FFFFFF" opacity="0.272"/><rect x="430" y="759" width="12" height="20" fill="#FFFFFF" opacity="0.272"/><rect x="464" y="759" width="12" height="20" fill="#FFFFFF" opacity="0.272"/><rect x="498" y="759" width="12" height="20" fill="#FFFFFF" opacity="0.272"/><rect x="539" y="613" width="151" height="187" rx="4" fill="#FFFFFF" opacity="0.16"/><rect x="553" y="639" width="12" height="20" fill="#FFFFFF" opacity="0.272"/><rect x="587" y="639" width="12" height="20" fill="#FFFFFF" opacity="0.272"/><rect x="621" y="639" width="12" height="20" fill="#FFFFFF" opacity="0.272"/><rect x="655" y="639" width="12" height="20" fill="#FFFFFF" opacity="0.272"/><rect x="553" y="685" width="12" height="20" fill="#FFFFFF" opacity="0.272"/><rect x="587" y="685" width="12" height="20" fill="#FFFFFF" opacity="0.272"/><rect x="621" y="685" width="12" height="20" fill="#FFFFFF" opacity="0.272"/><rect x="655" y="685" width="12" height="20" fill="#FFFFFF" opacity="0.272"/><rect x="553" y="731" width="12" height="20" fill="#FFFFFF" opacity="0.272"/><rect x="587" y="731" width="12" height="20" fill="#FFFFFF" opacity="0.272"/><rect x="621" y="731" width="12" height="20" fill="#FFFFFF" opacity="0.272"/><rect x="655" y="731" width="12" height="20" fill="#FFFFFF" opacity="0.272"/><rect x="704" y="622" width="110" height="178" rx="4" fill="#FFFFFF" opacity="0.16"/><rect x="718" y="648" width="12" height="20" fill="#FFFFFF" opacity="0.272"/><rect x="752" y="648" width="12" height="20" fill="#FFFFFF" opacity="0.272"/><rect x="786" y="648" width="12" height="20" fill="#FFFFFF" opacity="0.272"/><rect x="718" y="694" width="12" height="20" fill="#FFFFFF" opacity="0.272"/><rect x="752" y="694" width="12" height="20" fill="#FFFFFF" opacity="0.272"/><rect x="786" y="694" width="12" height="20" fill="#FFFFFF" opacity="0.272"/><rect x="718" y="740" width="12" height="20" fill="#FFFFFF" opacity="0.272"/><rect x="752" y="740" width="12" height="20" fill="#FFFFFF" opacity="0.272"/><rect x="786" y="740" width="12" height="20" fill="#FFFFFF" opacity="0.272"/><rect x="828" y="496" width="135" height="304" rx="4" fill="#FFFFFF" opacity="0.16"/><rect x="842" y="522" width="12" height="20" fill="#FFFFFF" opacity="0.272"/><rect x="876" y="522" width="12" height="20" fill="#FFFFFF" opacity="0.272"/><rect x="910" y="522" width="12" height="20" fill="#FFFFFF" opacity="0.272"/><rect x="944" y="522" width="12" height="20" fill="#FFFFFF" opacity="0.272"/><rect x="842" y="568" width="12" height="20" fill="#FFFFFF" opacity="0.272"/><rect x="876" y="568" width="12" height="20" fill="#FFFFFF" opacity="0.272"/><rect x="910" y="568" width="12" height="20" fill="#FFFFFF" opacity="0.272"/><rect x="944" y="568" width="12" height="20" fill="#FFFFFF" opacity="0.272"/><rect x="842" y="614" width="12" height="20" fill="#FFFFFF" opacity="0.272"/><rect x="876" y="614" width="12" height="20" fill="#FFFFFF" opacity="0.272"/><rect x="910" y="614" width="12" height="20" fill="#FFFFFF" opacity="0.272"/><rect x="944" y="614" width="12" height="20" fill="#FFFFFF" opacity="0.272"/><rect x="842" y="660" width="12" height="20" fill="#FFFFFF" opacity="0.272"/><rect x="876" y="660" width="12" height="20" fill="#FFFFFF" opacity="0.272"/><rect x="910" y="660" width="12" height="20" fill="#FFFFFF" opacity="0.272"/><rect x="944" y="660" width="12" height="20" fill="#FFFFFF" opacity="0.272"/><rect x="842" y="706" width="12" height="20" fill="#FFFFFF" opacity="0.272"/><rect x="876" y="706" width="12" height="20" fill="#FFFFFF" opacity="0.272"/><rect x="910" y="706" width="12" height="20" fill="#FFFFFF" opacity="0.272"/><rect x="944" y="706" width="12" height="20" fill="#FFFFFF" opacity="0.272"/><rect x="842" y="752" width="12" height="20" fill="#FFFFFF" opacity="0.272"/><rect x="876" y="752" width="12" height="20" fill="#FFFFFF" opacity="0.272"/><rect x="910" y="752" width="12" height="20" fill="#FFFFFF" opacity="0.272"/><rect x="944" y="752" width="12" height="20" fill="#FFFFFF" opacity="0.272"/><rect x="977" y="433" width="147" height="367" rx="4" fill="#FFFFFF" opacity="0.16"/><rect x="991" y="459" width="12" height="20" fill="#FFFFFF" opacity="0.272"/><rect x="1025" y="459" width="12" height="20" fill="#FFFFFF" opacity="0.272"/><rect x="1059" y="459" width="12" height="20" fill="#FFFFFF" opacity="0.272"/><rect x="1093" y="459" width="12" height="20" fill="#FFFFFF" opacity="0.272"/><rect x="991" y="505" width="12" height="20" fill="#FFFFFF" opacity="0.272"/><rect x="1025" y="505" width="12" height="20" fill="#FFFFFF" opacity="0.272"/><rect x="1059" y="505" width="12" height="20" fill="#FFFFFF" opacity="0.272"/><rect x="1093" y="505" width="12" height="20" fill="#FFFFFF" opacity="0.272"/><rect x="991" y="551" width="12" height="20" fill="#FFFFFF" opacity="0.272"/><rect x="1025" y="551" width="12" height="20" fill="#FFFFFF" opacity="0.272"/><rect x="1059" y="551" width="12" height="20" fill="#FFFFFF" opacity="0.272"/><rect x="1093" y="551" width="12" height="20" fill="#FFFFFF" opacity="0.272"/><rect x="991" y="597" width="12" height="20" fill="#FFFFFF" opacity="0.272"/><rect x="1025" y="597" width="12" height="20" fill="#FFFFFF" opacity="0.272"/><rect x="1059" y="597" width="12" height="20" fill="#FFFFFF" opacity="0.272"/><rect x="1093" y="597" width="12" height="20" fill="#FFFFFF" opacity="0.272"/><rect x="991" y="643" width="12" height="20" fill="#FFFFFF" opacity="0.272"/><rect x="1025" y="643" width="12" height="20" fill="#FFFFFF" opacity="0.272"/><rect x="1059" y="643" width="12" height="20" fill="#FFFFFF" opacity="0.272"/><rect x="1093" y="643" width="12" height="20" fill="#FFFFFF" opacity="0.272"/><rect x="991" y="689" width="12" height="20" fill="#FFFFFF" opacity="0.272"/><rect x="1025" y="689" width="12" height="20" fill="#FFFFFF" opacity="0.272"/><rect x="1059" y="689" width="12" height="20" fill="#FFFFFF" opacity="0.272"/><rect x="1093" y="689" width="12" height="20" fill="#FFFFFF" opacity="0.272"/><rect x="991" y="735" width="12" height="20" fill="#FFFFFF" opacity="0.272"/><rect x="1025" y="735" width="12" height="20" fill="#FFFFFF" opacity="0.272"/><rect x="1059" y="735" width="12" height="20" fill="#FFFFFF" opacity="0.272"/><rect x="1093" y="735" width="12" height="20" fill="#FFFFFF" opacity="0.272"/><rect x="1138" y="532" width="108" height="268" rx="4" fill="#FFFFFF" opacity="0.16"/><rect x="1152" y="558" width="12" height="20" fill="#FFFFFF" opacity="0.272"/><rect x="1186" y="558" width="12" height="20" fill="#FFFFFF" opacity="0.272"/><rect x="1220" y="558" width="12" height="20" fill="#FFFFFF" opacity="0.272"/><rect x="1152" y="604" width="12" height="20" fill="#FFFFFF" opacity="0.272"/><rect x="1186" y="604" width="12" height="20" fill="#FFFFFF" opacity="0.272"/><rect x="1220" y="604" width="12" height="20" fill="#FFFFFF" opacity="0.272"/><rect x="1152" y="650" width="12" height="20" fill="#FFFFFF" opacity="0.272"/><rect x="1186" y="650" width="12" height="20" fill="#FFFFFF" opacity="0.272"/><rect x="1220" y="650" width="12" height="20" fill="#FFFFFF" opacity="0.272"/><rect x="1152" y="696" width="12" height="20" fill="#FFFFFF" opacity="0.272"/><rect x="1186" y="696" width="12" height="20" fill="#FFFFFF" opacity="0.272"/><rect x="1220" y="696" width="12" height="20" fill="#FFFFFF" opacity="0.272"/><rect x="1152" y="742" width="12" height="20" fill="#FFFFFF" opacity="0.272"/><rect x="1186" y="742" width="12" height="20" fill="#FFFFFF" opacity="0.272"/><rect x="1220" y="742" width="12" height="20" fill="#FFFFFF" opacity="0.272"/><path d="M450 300 Q600 120 750 300" fill="#FFFFFF" opacity="0.16" stroke="#FFFFFF" stroke-width="26" fill="none"/></g>
  <rect width="1200" height="800" fill="url(#vg2crkkd)"/>

  <g font-family="Georgia, 'Times New Roman', serif" fill="#FFFFFF">
    <text x="64" y="668" font-size="128" opacity="0.20" font-weight="700">AI</text>
    <text x="64" y="726" font-size="27" font-weight="600" opacity="0.92">All India Institute of Medical Sciences</text>
    <text x="64" y="758" font-size="21" opacity="0.72">New Delhi</text>
  </g>
</svg>
