<svg xmlns="http://www.w3.org/2000/svg" viewBox="0 0 1200 800" width="1200" height="800" role="img" aria-label="Amity University">
  <defs>
    <linearGradient id="gjx4w88" gradientTransform="rotate(44 0.5 0.5)">
      <stop offset="0%" stop-color="#1F2937"/>
      <stop offset="100%" stop-color="#4B7B6B"/>
    </linearGradient>
    <radialGradient id="vgjx4w88" cx="50%" cy="38%" r="72%">
      <stop offset="0%" stop-color="#FFFFFF" stop-opacity="0.20"/>
      <stop offset="100%" stop-color="#000000" stop-opacity="0.28"/>
    </radialGradient>
    <pattern id="pgjx4w88" width="26" height="26" patternUnits="userSpaceOnUse" patternTransform="rotate(45)">
      <line x1="0" y1="0" x2="0" y2="26" stroke="#FFFFFF" stroke-width="1" opacity="0.07"/>
    </pattern>
  </defs>

  <rect width="1200" height="800" fill="url(#gjx4w88)"/>
  <rect width="1200" height="800" fill="url(#pgjx4w88)"/>
  <g><rect x="0" y="417" width="114" height="383" rx="4" fill="#FFFFFF" opacity="0.16"/><rect x="14" y="443" width="12" height="20" fill="#FFFFFF" opacity="0.272"/><rect x="48" y="443" width="12" height="20" fill="#FFFFFF" opacity="0.272"/><rect x="82" y="443" width="12" height="20" fill="#FFFFFF" opacity="0.272"/><rect x="14" y="489" width="12" height="20" fill="#FFFFFF" opacity="0.272"/><rect x="48" y="489" width="12" height="20" fill="#FFFFFF" opacity="0.272"/><rect x="82" y="489" width="12" height="20" fill="#FFFFFF" opacity="0.272"/><rect x="14" y="535" width="12" height="20" fill="#FFFFFF" opacity="0.272"/><rect x="48" y="535" width="12" height="20" fill="#FFFFFF" opacity="0.272"/><rect x="82" y="535" width="12" height="20" fill="#FFFFFF" opacity="0.272"/><rect x="14" y="581" width="12" height="20" fill="#FFFFFF" opacity="0.272"/><rect x="48" y="581" width="12" height="20" fill="#FFFFFF" opacity="0.272"/><rect x="82" y="581" width="12" height="20" fill="#FFFFFF" opacity="0.272"/><rect x="14" y="627" width="12" height="20" fill="#FFFFFF" opacity="0.272"/><rect x="48" y="627" width="12" height="20" fill="#FFFFFF" opacity="0.272"/><rect x="82" y="627" width="12" height="20" fill="#FFFFFF" opacity="0.272"/><rect x="14" y="673" width="12" height="20" fill="#FFFFFF" opacity="0.272"/><rect x="48" y="673" width="12" height="20" fill="#FFFFFF" opacity="0.272"/><rect x="82" y="673" width="12" height="20" fill="#FFFFFF" opacity="0.272"/><rect x="14" y="719" width="12" height="20" fill="#FFFFFF" opacity="0.272"/><rect x="48" y="719" width="12" height="20" fill="#FFFFFF" opacity="0.272"/><rect x="82" y="719" width="12" height="20" fill="#FFFFFF" opacity="0.272"/><rect x="128" y="524" width="92" height="276" rx="4" fill="#FFFFFF" opacity="0.16"/><rect x="142" y="550" width="12" height="20" fill="#FFFFFF" opacity="0.272"/><rect x="176" y="550" width="12" height="20" fill="#FFFFFF" opacity="0.272"/><rect x="142" y="596" width="12" height="20" fill="#FFFFFF" opacity="0.272"/><rect x="176" y="596" width="12" height="20" fill="#FFFFFF" opacity="0.272"/><rect x="142" y="642" width="12" height="20" fill="#FFFFFF" opacity="0.272"/><rect x="176" y="642" width="12" height="20" fill="#FFFFFF" opacity="0.272"/><rect x="142" y="688" width="12" height="20" fill="#FFFFFF" opacity="0.272"/><rect x="176" y="688" width="12" height="20" fill="#FFFFFF" opacity="0.272"/><rect x="142" y="734" width="12" height="20" fill="#FFFFFF" opacity="0.272"/><rect x="176" y="734" width="12" height="20" fill="#FFFFFF" opacity="0.272"/><rect x="234" y="577" width="126" height="223" rx="4" fill="#FFFFFF" opacity="0.16"/><rect x="248" y="603" width="12" height="20" fill="#FFFFFF" opacity="0.272"/><rect x="282" y="603" width="12" height="20" fill="#FFFFFF" opacity="0.272"/><rect x="316" y="603" width="12" height="20" fill="#FFFFFF" opacity="0.272"/><rect x="248" y="649" width="12" height="20" fill="#FFFFFF" opacity="0.272"/><rect x="282" y="649" width="12" height="20" fill="#FFFFFF" opacity="0.272"/><rect x="316" y="649" width="12" height="20" fill="#FFFFFF" opacity="0.272"/><rect x="248" y="695" width="12" height="20" fill="#FFFFFF" opacity="0.272"/><rect x="282" y="695" width="12" height="20" fill="#FFFFFF" opacity="0.272"/><rect x="316" y="695" width="12" height="20" fill="#FFFFFF" opacity="0.272"/><rect x="248" y="741" width="12" height="20" fill="#FFFFFF" opacity="0.272"/><rect x="282" y="741" width="12" height="20" fill="#FFFFFF" opacity="0.272"/><rect x="316" y="741" width="12" height="20" fill="#FFFFFF" opacity="0.272"/><rect x="374" y="474" width="143" height="326" rx="4" fill="#FFFFFF" opacity="0.16"/><rect x="388" y="500" width="12" height="20" fill="#FFFFFF" opacity="0.272"/><rect x="422" y="500" width="12" height="20" fill="#FFFFFF" opacity="0.272"/><rect x="456" y="500" width="12" height="20" fill="#FFFFFF" opacity="0.272"/><rect x="490" y="500" width="12" height="20" fill="#FFFFFF" opacity="0.272"/><rect x="388" y="546" width="12" height="20" fill="#FFFFFF" opacity="0.272"/><rect x="422" y="546" width="12" height="20" fill="#FFFFFF" opacity="0.272"/><rect x="456" y="546" width="12" height="20" fill="#FFFFFF" opacity="0.272"/><rect x="490" y="546" width="12" height="20" fill="#FFFFFF" opacity="0.272"/><rect x="388" y="592" width="12" height="20" fill="#FFFFFF" opacity="0.272"/><rect x="422" y="592" width="12" height="20" fill="#FFFFFF" opacity="0.272"/><rect x="456" y="592" width="12" height="20" fill="#FFFFFF" opacity="0.272"/><rect x="490" y="592" width="12" height="20" fill="#FFFFFF" opacity="0.272"/><rect x="388" y="638" width="12" height="20" fill="#FFFFFF" opacity="0.272"/><rect x="422" y="638" width="12" height="20" fill="#FFFFFF" opacity="0.272"/><rect x="456" y="638" width="12" height="20" fill="#FFFFFF" opacity="0.272"/><rect x="490" y="638" width="12" height="20" fill="#FFFFFF" opacity="0.272"/><rect x="388" y="684" width="12" height="20" fill="#FFFFFF" opacity="0.272"/><rect x="422" y="684" width="12" height="20" fill="#FFFFFF" opacity="0.272"/><rect x="456" y="684" width="12" height="20" fill="#FFFFFF" opacity="0.272"/><rect x="490" y="684" width="12" height="20" fill="#FFFFFF" opacity="0.272"/><rect x="388" y="730" width="12" height="20" fill="#FFFFFF" opacity="0.272"/><rect x="422" y="730" width="12" height="20" fill="#FFFFFF" opacity="0.272"/><rect x="456" y="730" width="12" height="20" fill="#FFFFFF" opacity="0.272"/><rect x="490" y="730" width="12" height="20" fill="#FFFFFF" opacity="0.272"/><rect x="531" y="552" width="106" height="248" rx="4" fill="#FFFFFF" opacity="0.16"/><rect x="545" y="578" width="12" height="20" fill="#FFFFFF" opacity="0.272"/><rect x="579" y="578" width="12" height="20" fill="#FFFFFF" opacity="0.272"/><rect x="613" y="578" width="12" height="20" fill="#FFFFFF" opacity="0.272"/><rect x="545" y="624" width="12" height="20" fill="#FFFFFF" opacity="0.272"/><rect x="579" y="624" width="12" height="20" fill="#FFFFFF" opacity="0.272"/><rect x="613" y="624" width="12" height="20" fill="#FFFFFF" opacity="0.272"/><rect x="545" y="670" width="12" height="20" fill="#FFFFFF" opacity="0.272"/><rect x="579" y="670" width="12" height="20" fill="#FFFFFF" opacity="0.272"/><rect x="613" y="670" width="12" height="20" fill="#FFFFFF" opacity="0.272"/><rect x="545" y="716" width="12" height="20" fill="#FFFFFF" opacity="0.272"/><rect x="579" y="716" width="12" height="20" fill="#FFFFFF" opacity="0.272"/><rect x="613" y="716" width="12" height="20" fill="#FFFFFF" opacity="0.272"/><rect x="651" y="461" width="133" height="339" rx="4" fill="#FFFFFF" opacity="0.16"/><rect x="665" y="487" width="12" height="20" fill="#FFFFFF" opacity="0.272"/><rect x="699" y="487" width="12" height="20" fill="#FFFFFF" opacity="0.272"/><rect x="733" y="487" width="12" height="20" fill="#FFFFFF" opacity="0.272"/><rect x="665" y="533" width="12" height="20" fill="#FFFFFF" opacity="0.272"/><rect x="699" y="533" width="12" height="20" fill="#FFFFFF" opacity="0.272"/><rect x="733" y="533" width="12" height="20" fill="#FFFFFF" opacity="0.272"/><rect x="665" y="579" width="12" height="20" fill="#FFFFFF" opacity="0.272"/><rect x="699" y="579" width="12" height="20" fill="#FFFFFF" opacity="0.272"/><rect x="733" y="579" width="12" height="20" fill="#FFFFFF" opacity="0.272"/><rect x="665" y="625" width="12" height="20" fill="#FFFFFF" opacity="0.272"/><rect x="699" y="625" width="12" height="20" fill="#FFFFFF" opacity="0.272"/><rect x="733" y="625" width="12" height="20" fill="#FFFFFF" opacity="0.272"/><rect x="665" y="671" width="12" height="20" fill="#FFFFFF" opacity="0.272"/><rect x="699" y="671" width="12" height="20" fill="#FFFFFF" opacity="0.272"/><rect x="733" y="671" width="12" height="20" fill="#FFFFFF" opacity="0.272"/><rect x="665" y="717" width="12" height="20" fill="#FFFFFF" opacity="0.272"/><rect x="699" y="717" width="12" height="20" fill="#FFFFFF" opacity="0.272"/><rect x="733" y="717" width="12" height="20" fill="#FFFFFF" opacity="0.272"/><rect x="798" y="546" width="146" height="254" rx="4" fill="#FFFFFF" opacity="0.16"/><rect x="812" y="572" width="12" height="20" fill="#FFFFFF" opacity="0.272"/><rect x="846" y="572" width="12" height="20" fill="#FFFFFF" opacity="0.272"/><rect x="880" y="572" width="12" height="20" fill="#FFFFFF" opacity="0.272"/><rect x="914" y="572" width="12" height="20" fill="#FFFFFF" opacity="0.272"/><rect x="812" y="618" width="12" height="20" fill="#FFFFFF" opacity="0.272"/><rect x="846" y="618" width="12" height="20" fill="#FFFFFF" opacity="0.272"/><rect x="880" y="618" width="12" height="20" fill="#FFFFFF" opacity="0.272"/><rect x="914" y="618" width="12" height="20" fill="#FFFFFF" opacity="0.272"/><rect x="812" y="664" width="12" height="20" fill="#FFFFFF" opacity="0.272"/><rect x="846" y="664" width="12" height="20" fill="#FFFFFF" opacity="0.272"/><rect x="880" y="664" width="12" height="20" fill="#FFFFFF" opacity="0.272"/><rect x="914" y="664" width="12" height="20" fill="#FFFFFF" opacity="0.272"/><rect x="812" y="710" width="12" height="20" fill="#FFFFFF" opacity="0.272"/><rect x="846" y="710" width="12" height="20" fill="#FFFFFF" opacity="0.272"/><rect x="880" y="710" width="12" height="20" fill="#FFFFFF" opacity="0.272"/><rect x="914" y="710" width="12" height="20" fill="#FFFFFF" opacity="0.272"/><rect x="812" y="756" width="12" height="20" fill="#FFFFFF" opacity="0.272"/><rect x="846" y="756" width="12" height="20" fill="#FFFFFF" opacity="0.272"/><rect x="880" y="756" width="12" height="20" fill="#FFFFFF" opacity="0.272"/><rect x="914" y="756" width="12" height="20" fill="#FFFFFF" opacity="0.272"/><rect x="958" y="588" width="108" height="212" rx="4" fill="#FFFFFF" opacity="0.16"/><rect x="972" y="614" width="12" height="20" fill="#FFFFFF" opacity="0.272"/><rect x="1006" y="614" width="12" height="20" fill="#FFFFFF" opacity="0.272"/><rect x="1040" y="614" width="12" height="20" fill="#FFFFFF" opacity="0.272"/><rect x="972" y="660" width="12" height="20" fill="#FFFFFF" opacity="0.272"/><rect x="1006" y="660" width="12" height="20" fill="#FFFFFF" opacity="0.272"/><rect x="1040" y="660" width="12" height="20" fill="#FFFFFF" opacity="0.272"/><rect x="972" y="706" width="12" height="20" fill="#FFFFFF" opacity="0.272"/><rect x="1006" y="706" width="12" height="20" fill="#FFFFFF" opacity="0.272"/><rect x="1040" y="706" width="12" height="20" fill="#FFFFFF" opacity="0.272"/><rect x="972" y="752" width="12" height="20" fill="#FFFFFF" opacity="0.272"/><rect x="1006" y="752" width="12" height="20" fill="#FFFFFF" opacity="0.272"/><rect x="1040" y="752" width="12" height="20" fill="#FFFFFF" opacity="0.272"/><rect x="1080" y="609" width="89" height="191" rx="4" fill="#FFFFFF" opacity="0.16"/><rect x="1094" y="635" width="12" height="20" fill="#FFFFFF" opacity="0.272"/><rect x="1128" y="635" width="12" height="20" fill="#FFFFFF" opacity="0.272"/><rect x="1094" y="681" width="12" height="20" fill="#FFFFFF" opacity="0.272"/><rect x="1128" y="681" width="12" height="20" fill="#FFFFFF" opacity="0.272"/><rect x="1094" y="727" width="12" height="20" fill="#FFFFFF" opacity="0.272"/><rect x="1128" y="727" width="12" height="20" fill="#FFFFFF" opacity="0.272"/><rect x="1183" y="486" width="124" height="314" rx="4" fill="#FFFFFF" opacity="0.16"/><rect x="1197" y="512" width="12" height="20" fill="#FFFFFF" opacity="0.272"/><rect x="1231" y="512" width="12" height="20" fill="#FFFFFF" opacity="0.272"/><rect x="1265" y="512" width="12" height="20" fill="#FFFFFF" opacity="0.272"/><rect x="1197" y="558" width="12" height="20" fill="#FFFFFF" opacity="0.272"/><rect x="1231" y="558" width="12" height="20" fill="#FFFFFF" opacity="0.272"/><rect x="1265" y="558" width="12" height="20" fill="#FFFFFF" opacity="0.272"/><rect x="1197" y="604" width="12" height="20" fill="#FFFFFF" opacity="0.272"/><rect x="1231" y="604" width="12" height="20" fill="#FFFFFF" opacity="0.272"/><rect x="1265" y="604" width="12" height="20" fill="#FFFFFF" opacity="0.272"/><rect x="1197" y="650" width="12" height="20" fill="#FFFFFF" opacity="0.272"/><rect x="1231" y="650" width="12" height="20" fill="#FFFFFF" opacity="0.272"/><rect x="1265" y="650" width="12" height="20" fill="#FFFFFF" opacity="0.272"/><rect x="1197" y="696" width="12" height="20" fill="#FFFFFF" opacity="0.272"/><rect x="1231" y="696" width="12" height="20" fill="#FFFFFF" opacity="0.272"/><rect x="1265" y="696" width="12" height="20" fill="#FFFFFF" opacity="0.272"/><rect x="1197" y="742" width="12" height="20" fill="#FFFFFF" opacity="0.272"/><rect x="1231" y="742" width="12" height="20" fill="#FFFFFF" opacity="0.272"/><rect x="1265" y="742" width="12" height="20" fill="#FFFFFF" opacity="0.272"/><path d="M574 250 L600 96 L626 250 Z" fill="#FFFFFF" opacity="0.16"/><path d="M0 800 Q336.00000000000006 650 696 800" stroke="#FFFFFF" stroke-width="3" opacity="0.12" fill="none"/></g>
  <rect width="1200" height="800" fill="url(#vgjx4w88)"/>

  <g font-family="Georgia, 'Times New Roman', serif" fill="#FFFFFF">
    <text x="64" y="668" font-size="128" opacity="0.20" font-weight="700">AU</text>
    <text x="64" y="726" font-size="27" font-weight="600" opacity="0.92">Amity University</text>
    <text x="64" y="758" font-size="21" opacity="0.72">Noida</text>
  </g>
</svg>
