<svg xmlns="http://www.w3.org/2000/svg" viewBox="0 0 1200 800" width="1200" height="800" role="img" aria-label="Christ University">
  <defs>
    <linearGradient id="g1epf1jn" gradientTransform="rotate(23 0.5 0.5)">
      <stop offset="0%" stop-color="#2A2320"/>
      <stop offset="100%" stop-color="#A87B4F"/>
    </linearGradient>
    <radialGradient id="vg1epf1jn" cx="50%" cy="38%" r="72%">
      <stop offset="0%" stop-color="#FFFFFF" stop-opacity="0.20"/>
      <stop offset="100%" stop-color="#000000" stop-opacity="0.28"/>
    </radialGradient>
    <pattern id="pg1epf1jn" width="26" height="26" patternUnits="userSpaceOnUse" patternTransform="rotate(45)">
      <line x1="0" y1="0" x2="0" y2="26" stroke="#FFFFFF" stroke-width="1" opacity="0.07"/>
    </pattern>
  </defs>

  <rect width="1200" height="800" fill="url(#g1epf1jn)"/>
  <rect width="1200" height="800" fill="url(#pg1epf1jn)"/>
  <g><rect x="0" y="672" width="17" height="128" rx="4" fill="#FFFFFF" opacity="0.16"/><rect x="31" y="781" width="43" height="19" rx="4" fill="#FFFFFF" opacity="0.16"/><rect x="88" y="706" width="56" height="94" rx="4" fill="#FFFFFF" opacity="0.16"/><rect x="102" y="732" width="12" height="20" fill="#FFFFFF" opacity="0.272"/><rect x="158" y="668" width="18" height="132" rx="4" fill="#FFFFFF" opacity="0.16"/><rect x="190" y="649" width="-1" height="151" rx="4" fill="#FFFFFF" opacity="0.16"/><rect x="203" y="640" width="34" height="160" rx="4" fill="#FFFFFF" opacity="0.16"/><rect x="217" y="666" width="12" height="20" fill="#FFFFFF" opacity="0.272"/><rect x="217" y="712" width="12" height="20" fill="#FFFFFF" opacity="0.272"/><rect x="217" y="758" width="12" height="20" fill="#FFFFFF" opacity="0.272"/><rect x="251" y="635" width="52" height="165" rx="4" fill="#FFFFFF" opacity="0.16"/><rect x="265" y="661" width="12" height="20" fill="#FFFFFF" opacity="0.272"/><rect x="265" y="707" width="12" height="20" fill="#FFFFFF" opacity="0.272"/><rect x="265" y="753" width="12" height="20" fill="#FFFFFF" opacity="0.272"/><rect x="317" y="633" width="61" height="167" rx="4" fill="#FFFFFF" opacity="0.16"/><rect x="331" y="659" width="12" height="20" fill="#FFFFFF" opacity="0.272"/><rect x="331" y="705" width="12" height="20" fill="#FFFFFF" opacity="0.272"/><rect x="331" y="751" width="12" height="20" fill="#FFFFFF" opacity="0.272"/><rect x="392" y="632" width="20" height="168" rx="4" fill="#FFFFFF" opacity="0.16"/><rect x="426" y="703" width="45" height="97" rx="4" fill="#FFFFFF" opacity="0.16"/><rect x="440" y="729" width="12" height="20" fill="#FFFFFF" opacity="0.272"/><rect x="485" y="797" width="57" height="3" rx="4" fill="#FFFFFF" opacity="0.16"/><rect x="556" y="714" width="18" height="86" rx="4" fill="#FFFFFF" opacity="0.16"/><rect x="588" y="672" width="17" height="128" rx="4" fill="#FFFFFF" opacity="0.16"/><rect x="619" y="781" width="43" height="19" rx="4" fill="#FFFFFF" opacity="0.16"/><rect x="676" y="706" width="56" height="94" rx="4" fill="#FFFFFF" opacity="0.16"/><rect x="690" y="732" width="12" height="20" fill="#FFFFFF" opacity="0.272"/><rect x="746" y="668" width="18" height="132" rx="4" fill="#FFFFFF" opacity="0.16"/><rect x="778" y="649" width="-1" height="151" rx="4" fill="#FFFFFF" opacity="0.16"/><rect x="791" y="640" width="34" height="160" rx="4" fill="#FFFFFF" opacity="0.16"/><rect x="805" y="666" width="12" height="20" fill="#FFFFFF" opacity="0.272"/><rect x="805" y="712" width="12" height="20" fill="#FFFFFF" opacity="0.272"/><rect x="805" y="758" width="12" height="20" fill="#FFFFFF" opacity="0.272"/><rect x="839" y="635" width="52" height="165" rx="4" fill="#FFFFFF" opacity="0.16"/><rect x="853" y="661" width="12" height="20" fill="#FFFFFF" opacity="0.272"/><rect x="853" y="707" width="12" height="20" fill="#FFFFFF" opacity="0.272"/><rect x="853" y="753" width="12" height="20" fill="#FFFFFF" opacity="0.272"/><rect x="905" y="633" width="61" height="167" rx="4" fill="#FFFFFF" opacity="0.16"/><rect x="919" y="659" width="12" height="20" fill="#FFFFFF" opacity="0.272"/><rect x="919" y="705" width="12" height="20" fill="#FFFFFF" opacity="0.272"/><rect x="919" y="751" width="12" height="20" fill="#FFFFFF" opacity="0.272"/><rect x="980" y="632" width="20" height="168" rx="4" fill="#FFFFFF" opacity="0.16"/><rect x="1014" y="703" width="45" height="97" rx="4" fill="#FFFFFF" opacity="0.16"/><rect x="1028" y="729" width="12" height="20" fill="#FFFFFF" opacity="0.272"/><rect x="1073" y="797" width="57" height="3" rx="4" fill="#FFFFFF" opacity="0.16"/><rect x="1144" y="714" width="18" height="86" rx="4" fill="#FFFFFF" opacity="0.16"/><rect x="1176" y="672" width="17" height="128" rx="4" fill="#FFFFFF" opacity="0.16"/><path d="M480 330 L600 150 L720 330 Z" fill="#FFFFFF" opacity="0.16"/><rect x="540" y="200" width="120" height="18" fill="#FFFFFF" opacity="0.16"/><path d="M0 800 Q336.00000000000006 650 696 800" stroke="#FFFFFF" stroke-width="3" opacity="0.12" fill="none"/></g>
  <rect width="1200" height="800" fill="url(#vg1epf1jn)"/>

  <g font-family="Georgia, 'Times New Roman', serif" fill="#FFFFFF">
    <text x="64" y="668" font-size="128" opacity="0.20" font-weight="700">CU</text>
    <text x="64" y="726" font-size="27" font-weight="600" opacity="0.92">Christ University</text>
    <text x="64" y="758" font-size="21" opacity="0.72">Bengaluru</text>
  </g>
</svg>
